<svg width="561" height="561" viewBox="0 0 561 561" fill="none" xmlns="http://www.w3.org/2000/svg">
<path d="M0 0C185.13 0 370.26 0 561 0C561 185.13 561 370.26 561 561C375.87 561 190.74 561 0 561C0 375.87 0 190.74 0 0ZM42 42C42 199.41 42 356.82 42 519C199.41 519 356.82 519 519 519C519 361.59 519 204.18 519 42C361.59 42 204.18 42 42 42Z" fill="#5271CE"/>
<path d="M172 128C185.86 128 199.72 128 214 128C214 227.66 214 327.32 214 430C200.14 430 186.28 430 172 430C172 330.34 172 230.68 172 128Z" fill="#5573CF"/>
<path d="M259 259C301.57 259 344.14 259 388 259C388 315.43 388 371.86 388 430C374.14 430 360.28 430 346 430C346 387.43 346 344.86 346 301C317.29 301 288.58 301 259 301C259 287.14 259 273.28 259 259Z" fill="#5573CF"/>
</svg>
